<?xml version="1.0" encoding="UTF-8"?>
<svg width="209px" height="35px" viewBox="0 0 209 35" version="1.1" xmlns="http://www.w3.org/2000/svg" xmlns:xlink="http://www.w3.org/1999/xlink">
    <!-- Generator: Sketch 47.1 (45422) - http://www.bohemiancoding.com/sketch -->
    <title>Group 2</title>
    <desc>Created with Sketch.</desc>
    <defs></defs>
    <g id="Page-1" stroke="none" stroke-width="1" fill="none" fill-rule="evenodd">
        <g id="Welcome-on-Board" transform="translate(-133.000000, -51.000000)" fill="#00B4EA">
            <g id="Group-2" transform="translate(133.000000, 51.000000)">
                <path d="M59.3602241,14.8944444 C59.6718993,15.0777787 59.8277346,15.3324058 59.8277346,15.6583333 C59.8277346,15.8416676 59.7550115,16.0453692 59.609563,16.2694444 C59.4225579,16.4935196 59.1836104,16.6055556 58.8927135,16.6055556 C58.7264867,16.6055556 58.5602624,16.5546301 58.3940356,16.4527778 C56.7317677,15.3731427 54.9136894,14.8333333 52.9397462,14.8333333 C51.2566999,14.8333333 49.7347087,15.2203665 48.3737268,15.9944444 C47.0127449,16.7685224 45.942676,17.8532338 45.1634879,19.2486111 C44.3842998,20.6439885 43.9947116,22.2277689 43.9947116,24 C43.9947116,25.812972 44.3894943,27.4171227 45.1790716,28.8125 C45.9686488,30.2078773 47.0439123,31.2874962 48.4048942,32.0513889 C49.765876,32.8152816 51.2774783,33.1972222 52.9397462,33.1972222 C54.9136894,33.1972222 56.7213787,32.6675979 58.3628683,31.6083333 C58.5290951,31.506481 58.7057084,31.4555556 58.8927135,31.4555556 C59.1836104,31.4555556 59.4225579,31.5777766 59.609563,31.8222222 C59.7550115,31.985186 59.8277346,32.1787026 59.8277346,32.4027778 C59.8277346,32.7287053 59.6822883,32.9731473 59.3913914,33.1361111 C58.5810358,33.6657434 57.58369,34.1087945 56.3993241,34.4652778 C55.2149582,34.821761 54.0617771,35 52.9397462,35 C50.965803,35 49.1425302,34.5365787 47.4698731,33.6097222 C45.797216,32.6828657 44.4674216,31.3842676 43.48045,29.7138889 C42.4934784,28.0435102 42,26.1388996 42,24 C42,21.9425823 42.4882839,20.0736195 43.4648663,18.3930556 C44.4414487,16.7124916 45.7608541,15.3986158 47.4231221,14.4513889 C49.08539,13.5041619 50.9242463,13.0305556 52.9397462,13.0305556 C54.1033338,13.0305556 55.2409313,13.1935169 56.352573,13.5194444 C57.4642147,13.845372 58.466755,14.3037007 59.3602241,14.8944444 Z M83.909768,24 C83.909768,26.0981586 83.4630402,27.9823991 82.5695711,29.6527778 C81.6761021,31.3231565 80.4398089,32.6319397 78.8606543,33.5791667 C77.2814998,34.5263936 75.4841995,35 73.4686996,35 C71.4531998,35 69.6558995,34.5263936 68.076745,33.5791667 C66.4975904,32.6319397 65.2612972,31.3231565 64.3678281,29.6527778 C63.4743591,27.9823991 63.0276313,26.0981586 63.0276313,24 C63.0276313,21.8814709 63.4743591,19.9870454 64.3678281,18.3166667 C65.2612972,16.6462879 66.4975904,15.3425973 68.076745,14.4055556 C69.6558995,13.4685138 71.4531998,13 73.4686996,13 C75.4841995,13 77.2814998,13.4685138 78.8606543,14.4055556 C80.4398089,15.3425973 81.6761021,16.6462879 82.5695711,18.3166667 C83.4630402,19.9870454 83.909768,21.8814709 83.909768,24 Z M81.9150564,24 C81.9150564,22.2277689 81.5566353,20.6439885 80.8397822,19.2486111 C80.1229292,17.8532338 79.1255834,16.7685224 77.8477149,15.9944444 C76.5698464,15.2203665 75.1101892,14.8333333 73.4686996,14.8333333 C71.82721,14.8333333 70.3675529,15.2203665 69.0896844,15.9944444 C67.8118159,16.7685224 66.8144701,17.8532338 66.0976171,19.2486111 C65.380764,20.6439885 65.0223429,22.2277689 65.0223429,24 C65.0223429,25.7722311 65.380764,27.3560115 66.0976171,28.7513889 C66.8144701,30.1467662 67.8118159,31.2314776 69.0896844,32.0055556 C70.3675529,32.7796335 71.82721,33.1666667 73.4686996,33.1666667 C75.1101892,33.1666667 76.5698464,32.7796335 77.8477149,32.0055556 C79.1255834,31.2314776 80.1229292,30.1467662 80.8397822,28.7513889 C81.5566353,27.3560115 81.9150564,25.7722311 81.9150564,24 Z M107.022969,13.3055556 C107.272309,13.3055556 107.485284,13.3921288 107.6619,13.5652778 C107.838516,13.7384268 107.926822,13.9574061 107.926822,14.2222222 L107.926822,33.7777778 C107.926822,34.0425939 107.833321,34.2615732 107.646316,34.4347222 C107.459311,34.6078712 107.230753,34.6944444 106.960634,34.6944444 C106.669737,34.6944444 106.43079,34.6078712 106.243785,34.4347222 C106.056779,34.2615732 105.963278,34.0425939 105.963278,33.7777778 L105.963278,16.9722222 L98.6389467,27.85 C98.4311632,28.1148161 98.1922158,28.2370371 97.9220972,28.2166667 L97.8597625,28.2166667 C97.6104223,28.2166667 97.3818639,28.0944457 97.1740804,27.85 L89.8497489,16.9111111 L89.8497489,33.7777778 C89.8497489,34.0425939 89.7614422,34.2615732 89.5848262,34.4347222 C89.4082103,34.6078712 89.1848464,34.6944444 88.9147278,34.6944444 C88.6446093,34.6944444 88.4264399,34.6078712 88.2602131,34.4347222 C88.0939863,34.2615732 88.0108742,34.0425939 88.0108742,33.7777778 L88.0108742,14.2222222 C88.0108742,13.9777766 88.0991808,13.7638898 88.2757968,13.5805556 C88.4524128,13.3972213 88.6757767,13.3055556 88.9458952,13.3055556 C89.0913436,13.3055556 89.2471789,13.3412033 89.4134057,13.4125 C89.5796325,13.4837967 89.7043007,13.5805549 89.7874141,13.7027778 L97.9532646,25.7111111 L106.18145,13.7027778 C106.410012,13.3972207 106.690515,13.2648146 107.022969,13.3055556 Z M127.362274,13.3055556 C127.632392,13.3055556 127.855756,13.3870362 128.032372,13.55 C128.208988,13.7129638 128.297295,13.9268505 128.297295,14.1916667 C128.297295,14.4564828 128.208988,14.665277 128.032372,14.8180556 C127.855756,14.9708341 127.632392,15.0472222 127.362274,15.0472222 L120.910629,15.0472222 L120.910629,33.7777778 C120.910629,34.0425939 120.817127,34.2615732 120.630122,34.4347222 C120.443117,34.6078712 120.214559,34.6944444 119.94444,34.6944444 C119.653543,34.6944444 119.41979,34.6078712 119.243174,34.4347222 C119.066558,34.2615732 118.978252,34.0425939 118.978252,33.7777778 L118.978252,15.0472222 L112.526606,15.0472222 C112.256488,15.0472222 112.033124,14.9657416 111.856508,14.8027778 C111.679892,14.639814 111.591585,14.4259272 111.591585,14.1611111 C111.591585,13.9166654 111.679892,13.7129638 111.856508,13.55 C112.033124,13.3870362 112.256488,13.3055556 112.526606,13.3055556 L127.362274,13.3055556 Z M146.906339,33.8611111 C146.906339,34.1388889 146.706112,34.6944444 145.956206,34.6944444 C145.2063,34.6944444 144.95885,34.1388889 144.95885,33.8611111 C144.95885,33.5833333 144.95885,31.0481562 144.95885,29.4388889 C144.95885,28.0129558 144.553679,27.0097251 143.743323,26.4291667 C142.932967,25.8486082 141.966789,25.5583333 140.844758,25.5583333 L133.925602,25.5583333 L133.925602,33.7777778 C133.925602,34.0425939 133.84249,34.2615732 133.676263,34.4347222 C133.510036,34.6078712 133.291867,34.6944444 133.021748,34.6944444 C132.730851,34.6944444 132.481515,34.6078712 132.273731,34.4347222 C132.065948,34.2615732 131.962058,34.0425939 131.962058,33.7777778 L131.962058,14.2222222 C131.962058,13.9574061 132.050364,13.7384268 132.22698,13.5652778 C132.403596,13.3921288 132.62696,13.3055556 132.897079,13.3055556 L141.312268,13.3055556 C142.496634,13.3055556 143.556314,13.5550901 144.49134,14.0541667 C145.426366,14.5532432 146.158791,15.2407364 146.688639,16.1166667 C147.218487,16.992597 147.483407,17.9805501 147.483407,19.0805556 C147.483407,20.3842658 147.135375,21.5300877 146.4393,22.5180556 C145.743226,23.5060235 144.834186,24.1833315 143.712156,24.55 C144.626403,24.896298 145.374412,25.4819403 145.956206,26.3069444 C146.538,27.1319486 146.839281,28.1351793 146.86006,29.3166667 C146.873912,30.1586462 146.889338,31.673461 146.906339,33.8611111 Z M141.40577,23.8777778 C142.133013,23.8166664 142.808299,23.5824094 143.431649,23.175 C144.055,22.7675906 144.553673,22.2175961 144.927683,21.525 C145.301693,20.8324039 145.488696,20.0379674 145.488696,19.1416667 C145.488696,17.9805497 145.088718,17.0180594 144.288752,16.2541667 C143.488785,15.490274 142.444689,15.1083333 141.156431,15.1083333 L133.925602,15.1083333 L133.925602,23.8777778 L141.40577,23.8777778 Z M168.788901,33.4722222 C168.830457,33.635186 168.851235,33.757407 168.851235,33.8388889 C168.851235,34.103705 168.757734,34.3175918 168.570729,34.4805556 C168.383724,34.6435193 168.165554,34.725 167.916214,34.725 C167.708431,34.725 167.526623,34.668982 167.370785,34.5569444 C167.214948,34.4449068 167.095474,34.2972231 167.012361,34.1138889 L164.674808,28.5222222 L154.545413,28.5222222 L152.239028,34.1138889 C152.072801,34.5212983 151.792298,34.725 151.397509,34.725 C151.106612,34.725 150.888443,34.6537044 150.742994,34.5111111 C150.597546,34.3685178 150.514434,34.1750012 150.493655,33.9305556 L150.493655,33.8388889 C150.493655,33.7166661 150.504044,33.6250003 150.524823,33.5638889 L158.753008,13.825 C158.919235,13.4175906 159.230905,13.2138889 159.688029,13.2138889 C159.895813,13.2138889 160.07762,13.2699068 160.233458,13.3819444 C160.389296,13.493982 160.508769,13.6416657 160.591883,13.825 L168.788901,33.4722222 Z M155.262263,26.7194444 L163.926791,26.7194444 L159.56336,16.2694444 L155.262263,26.7194444 Z M185.263452,13.275 C185.53357,13.275 185.762129,13.3615732 185.949134,13.5347222 C186.136139,13.7078712 186.22964,13.9064804 186.22964,14.1305556 C186.22964,14.2731489 186.198473,14.4259251 186.136138,14.5888889 L177.814451,34.0833333 C177.731337,34.2666676 177.606669,34.4143513 177.440442,34.5263889 C177.274216,34.6384265 177.097602,34.6944444 176.910597,34.6944444 C176.723592,34.6944444 176.552173,34.643519 176.396336,34.5416667 C176.240498,34.4398143 176.121024,34.2972231 176.037911,34.1138889 L167.747391,14.65 C167.685056,14.5277772 167.653889,14.3648158 167.653889,14.1611111 C167.653889,13.896295 167.74739,13.6824082 167.934395,13.5194444 C168.1214,13.3564807 168.329181,13.275 168.557743,13.275 C168.994088,13.275 169.305758,13.4990718 169.492764,13.9472222 L177.004099,31.5472222 L184.390766,13.8861111 C184.494657,13.7027769 184.62452,13.5550932 184.780358,13.4430556 C184.936195,13.331018 185.097225,13.275 185.263452,13.275 Z M209,24 C209,26.0981586 208.553272,27.9823991 207.659803,29.6527778 C206.766334,31.3231565 205.530041,32.6319397 203.950886,33.5791667 C202.371732,34.5263936 200.574432,35 198.558932,35 C196.543432,35 194.746132,34.5263936 193.166977,33.5791667 C191.587822,32.6319397 190.351529,31.3231565 189.45806,29.6527778 C188.564591,27.9823991 188.117863,26.0981586 188.117863,24 C188.117863,21.8814709 188.564591,19.9870454 189.45806,18.3166667 C190.351529,16.6462879 191.587822,15.3425973 193.166977,14.4055556 C194.746132,13.4685138 196.543432,13 198.558932,13 C200.574432,13 202.371732,13.4685138 203.950886,14.4055556 C205.530041,15.3425973 206.766334,16.6462879 207.659803,18.3166667 C208.553272,19.9870454 209,21.8814709 209,24 Z M207.005288,24 C207.005288,22.2277689 206.646867,20.6439885 205.930014,19.2486111 C205.213161,17.8532338 204.215815,16.7685224 202.937947,15.9944444 C201.660078,15.2203665 200.200421,14.8333333 198.558932,14.8333333 C196.917442,14.8333333 195.457785,15.2203665 194.179916,15.9944444 C192.902048,16.7685224 191.904702,17.8532338 191.187849,19.2486111 C190.470996,20.6439885 190.112575,22.2277689 190.112575,24 C190.112575,25.7722311 190.470996,27.3560115 191.187849,28.7513889 C191.904702,30.1467662 192.902048,31.2314776 194.179916,32.0055556 C195.457785,32.7796335 196.917442,33.1666667 198.558932,33.1666667 C200.200421,33.1666667 201.660078,32.7796335 202.937947,32.0055556 C204.215815,31.2314776 205.213161,30.1467662 205.930014,28.7513889 C206.646867,27.3560115 207.005288,25.7722311 207.005288,24 Z" id="COMTRAVO"></path>
                <g id="Page-1">
                    <path d="M40.4390654,0.0543819354 L0.927065424,2.46138194 C0.0920654241,2.51238194 -0.302934576,3.50838194 0.270065424,4.11838194 L12.4710654,17.1523819 C12.7840654,17.4863819 13.2840654,17.5653819 13.6820654,17.3423819 L30.8630654,7.71938194 C31.3390654,7.45238194 31.5060654,6.85138194 31.2370654,6.37538194 C30.9670654,5.89938194 30.3630654,5.72938194 29.8870654,5.99538194 L13.3830654,15.2383819 L3.14706542,4.30538194 L39.0910654,2.11538194 L20.4360654,30.9253819 L19.8820654,18.5763819 C19.8570654,18.0293819 19.4050654,17.6063819 18.8730654,17.6313819 C18.3400654,17.6563819 17.9280654,18.1203819 17.9530654,18.6673819 L18.6430654,34.0413819 C18.6860654,34.9983819 19.8940654,35.3433819 20.4110654,34.5453819 L41.7900654,1.53038194 C42.0850654,1.07438194 41.9650654,0.459381935 41.5210654,0.155381935 C41.2440654,-0.0336180646 40.5050654,0.0503819354 40.4390654,0.0543819354 Z" id="Fill-1"></path>
                </g>
            </g>
        </g>
    </g>
</svg>